<?xml version="1.0" standalone="no"?>
<!DOCTYPE svg PUBLIC "-//W3C//DTD SVG 20010904//EN"
 "http://www.w3.org/TR/2001/REC-SVG-20010904/DTD/svg10.dtd">
<svg version="1.0" xmlns="http://www.w3.org/2000/svg"
 width="256.000000pt" height="256.000000pt" viewBox="0 0 256.000000 256.000000"
 preserveAspectRatio="xMidYMid meet">
<metadata>
Created by potrace 1.11, written by Peter Selinger 2001-2013
</metadata>
<g transform="translate(0.000000,256.000000) scale(0.100000,-0.100000)"
fill="#000000" stroke="none">
<path d="M848 2413 c-10 -3 -18 -9 -18 -14 0 -5 -9 -9 -21 -9 -11 0 -17 -5
-14 -10 3 -6 0 -13 -8 -16 -9 -3 -18 -16 -21 -30 -4 -13 -11 -24 -16 -24 -5 0
-7 -6 -4 -14 3 -8 1 -17 -5 -20 -6 -4 -8 -13 -4 -21 3 -8 0 -15 -7 -15 -6 0
-9 -4 -6 -9 3 -5 -5 -20 -19 -35 -13 -14 -22 -26 -20 -26 3 0 -10 -15 -28 -33
-18 -19 -35 -32 -39 -30 -5 2 -8 -1 -8 -7 0 -13 -160 -175 -160 -163 0 4 -5 0
-11 -10 -6 -9 -14 -15 -20 -12 -5 3 -6 -1 -3 -9 3 -9 1 -16 -5 -16 -7 0 -25
-13 -40 -29 -16 -16 -32 -27 -37 -23 -4 4 -4 2 0 -5 4 -7 -2 -17 -14 -23 -11
-6 -18 -15 -15 -21 4 -5 -1 -12 -9 -15 -9 -3 -16 -13 -16 -20 0 -8 -7 -17 -15
-20 -8 -4 -15 -13 -15 -20 0 -8 -7 -17 -15 -20 -8 -4 -15 -11 -15 -16 0 -5 -9
-21 -20 -35 -11 -14 -17 -29 -14 -34 3 -5 -1 -9 -8 -9 -8 0 -9 -3 -3 -8 6 -4
11 -23 13 -42 1 -19 7 -36 12 -38 6 -2 10 -13 10 -25 0 -11 3 -17 7 -14 3 4
19 -7 35 -23 15 -16 28 -24 28 -17 0 6 5 4 11 -5 5 -10 18 -18 28 -18 10 0 21
-3 25 -7 3 -4 13 -8 21 -9 12 -2 55 -16 125 -42 8 -3 18 -4 23 -4 4 1 7 -2 7
-7 0 -5 8 -7 19 -4 27 7 33 -11 20 -59 -6 -24 -10 -43 -9 -43 1 0 -3 -13 -9
-28 -6 -15 -13 -42 -16 -60 -4 -18 -10 -33 -15 -35 -5 -2 -7 -9 -4 -17 3 -7 0
-16 -6 -20 -8 -5 -8 -11 1 -21 7 -9 8 -14 1 -14 -7 0 -8 -10 -1 -32 5 -17 10
-47 11 -65 1 -19 6 -36 10 -39 4 -3 5 -11 1 -19 -3 -9 1 -15 8 -15 11 0 11 -3
-1 -10 -9 -6 -10 -10 -3 -10 6 0 10 -9 8 -20 -2 -11 0 -22 5 -25 5 -3 7 -12 3
-20 -3 -8 -1 -15 5 -15 6 0 8 -9 5 -20 -3 -11 0 -20 6 -20 6 0 11 -7 11 -15 0
-8 9 -19 20 -25 11 -6 20 -15 20 -20 0 -5 19 -29 43 -54 65 -68 106 -116 99
-116 -4 0 5 -7 21 -15 15 -8 38 -21 52 -28 14 -8 23 -16 20 -19 -3 -2 11 -11
30 -18 19 -8 35 -17 35 -22 0 -4 7 -8 16 -8 10 0 14 -5 10 -16 -3 -8 -2 -12 4
-9 6 3 10 0 10 -7 0 -19 23 -68 33 -68 4 0 7 -6 7 -12 0 -7 14 -29 30 -48 16
-19 30 -41 30 -48 0 -7 5 -10 10 -7 5 3 10 1 10 -5 0 -6 16 -26 35 -46 19 -19
35 -31 35 -27 0 4 7 -2 16 -13 8 -10 13 -12 9 -4 -4 8 1 6 10 -5 12 -15 29
-20 70 -22 32 0 55 3 55 9 0 6 8 4 17 -3 9 -8 14 -9 10 -3 -4 7 2 14 13 17 11
3 20 0 20 -5 0 -7 5 -6 14 1 11 9 15 9 19 -1 4 -9 6 -10 6 -1 1 7 7 10 15 7 8
-3 17 0 21 5 3 6 11 9 16 6 5 -4 9 -1 9 4 0 6 7 11 16 11 8 0 13 3 11 8 -5 10
30 42 38 34 4 -4 6 -2 4 3 -4 18 13 45 29 45 8 0 13 3 9 6 -3 4 0 19 9 35 10
20 11 29 3 29 -8 0 -8 4 -1 13 6 8 1 33 -18 79 -15 37 -25 69 -23 72 3 3 6 23
7 44 1 21 12 56 24 76 12 21 20 42 17 47 -4 5 -1 9 5 9 6 0 8 5 5 10 -3 6 -1
10 4 10 6 0 11 7 11 15 0 9 7 18 15 21 8 4 13 10 10 14 -3 4 2 13 10 20 8 7
12 16 9 21 -3 5 0 9 5 9 6 0 11 6 11 14 0 8 7 16 15 20 8 3 14 9 14 13 -4 16
14 43 24 36 6 -4 7 -1 3 6 -5 7 0 18 10 26 11 8 15 15 11 15 -5 0 1 12 12 26
11 15 18 30 15 35 -3 5 2 9 10 9 9 0 15 4 14 9 -4 12 34 71 45 71 4 0 7 -5 7
-11 0 -5 4 -7 10 -4 9 5 115 -11 150 -23 26 -9 55 -7 62 3 5 6 8 5 8 -3 0 -8
5 -10 13 -5 12 7 18 9 53 16 8 2 19 8 22 13 4 5 14 10 21 12 8 2 25 14 38 28
13 14 23 21 23 17 1 -4 7 3 14 17 8 14 12 28 10 32 -3 5 -1 8 3 8 5 0 8 49 8
110 0 60 4 110 8 110 5 0 5 6 1 12 -5 7 -8 30 -7 50 1 21 -3 38 -8 38 -6 0 -8
4 -4 9 3 5 1 12 -5 16 -6 4 -8 10 -5 14 2 4 -7 23 -20 41 -13 18 -22 37 -19
41 3 5 -2 9 -10 9 -8 0 -13 6 -10 13 2 7 -5 23 -16 35 -11 12 -17 22 -13 22 4
0 2 5 -4 11 -6 6 -9 18 -6 27 4 10 2 13 -5 8 -11 -6 -17 12 -13 37 1 5 -2 6
-7 3 -4 -2 -14 4 -21 16 -10 16 -10 19 1 13 7 -3 5 0 -4 7 -9 8 -18 21 -20 28
-2 8 -9 21 -15 28 -11 11 -16 55 -16 135 0 9 -4 17 -8 17 -5 0 -9 6 -9 13 0
19 -45 67 -64 67 -9 0 -16 5 -16 11 0 6 -7 9 -15 6 -8 -4 -17 -2 -20 3 -3 5
-20 4 -40 -1 -19 -6 -40 -7 -47 -3 -6 4 -8 3 -5 -3 3 -5 -7 -17 -23 -26 -16
-10 -32 -26 -35 -37 -4 -11 -11 -17 -17 -14 -7 4 -8 2 -4 -5 9 -15 -25 -63
-58 -81 -14 -7 -26 -20 -26 -27 0 -8 -4 -12 -9 -9 -5 4 -11 1 -13 -6 -8 -24
-24 2 -27 44 -1 24 -6 45 -12 46 -5 2 -9 10 -9 17 0 8 -9 21 -21 29 -12 8 -18
19 -15 25 4 7 1 8 -8 5 -9 -3 -16 -2 -16 3 0 5 -8 9 -17 10 -60 6 -81 6 -103
-2 -29 -9 -70 -45 -70 -61 0 -7 -7 -15 -16 -18 -8 -3 -13 -10 -9 -15 3 -5 1
-12 -5 -16 -6 -4 -8 -10 -5 -14 2 -5 -4 -16 -15 -26 -19 -17 -26 -12 -21 18 0
4 -2 6 -6 5 -5 -2 -10 2 -12 7 -2 6 -12 22 -23 38 -11 15 -16 27 -11 27 4 0 3
4 -3 8 -20 14 -55 82 -48 93 4 8 3 9 -4 5 -13 -8 -36 30 -27 44 4 6 -1 7 -11
3 -11 -4 -15 -2 -11 4 4 6 0 13 -8 17 -8 3 -15 15 -15 26 0 11 -6 23 -13 26
-7 2 -12 19 -12 37 1 17 -1 37 -4 42 -3 6 -6 15 -7 20 -7 35 -37 83 -64 103
-31 23 -114 35 -162 25z m68 -55 c-8 13 6 17 18 5 4 -4 15 -8 24 -8 9 0 16 -6
14 -13 -1 -8 2 -11 7 -7 12 7 33 -29 23 -40 -4 -3 -1 -5 7 -3 10 2 15 -6 15
-22 1 -17 -4 -24 -14 -22 -8 2 -11 0 -7 -5 5 -4 13 -9 18 -9 5 -1 11 -2 14 -3
3 0 1 -10 -4 -20 -8 -14 -7 -22 4 -31 8 -7 13 -16 10 -20 -3 -4 2 -10 10 -14
8 -3 15 -12 15 -20 0 -8 4 -16 8 -18 13 -5 71 -106 65 -112 -4 -3 -1 -6 5 -6
7 0 20 -18 29 -40 10 -22 21 -40 26 -40 4 0 5 -4 2 -10 -3 -5 -1 -10 5 -10 7
0 10 -6 7 -14 -3 -8 1 -17 9 -20 9 -3 12 -10 9 -16 -3 -5 -2 -10 4 -10 5 0 12
-8 15 -18 4 -12 15 -17 33 -16 47 2 57 4 50 10 -9 9 26 44 37 37 6 -4 5 0 -2
9 -10 13 -10 17 3 21 9 4 12 13 8 23 -5 13 -3 15 7 9 9 -5 11 -4 6 4 -9 15 20
44 35 35 7 -4 9 -3 5 4 -3 6 3 14 15 17 14 5 25 2 30 -6 7 -11 9 -11 9 -1 0 9
7 11 22 6 37 -11 59 -40 61 -78 1 -20 5 -36 9 -36 5 0 7 -3 7 -7 -5 -33 4 -52
33 -66 27 -13 33 -13 45 -1 8 8 19 12 24 8 5 -3 8 -2 7 3 -4 12 34 53 49 53 7
0 12 4 10 8 -1 4 14 23 33 41 19 18 28 29 20 25 -14 -7 -5 6 40 57 18 20 100
36 100 19 0 -6 3 -9 8 -7 4 2 18 -7 32 -21 14 -13 19 -22 13 -18 -7 4 -13 2
-13 -3 0 -6 6 -11 14 -11 8 0 13 -8 11 -17 -1 -10 -8 -17 -15 -15 -6 1 -9 -2
-5 -8 3 -6 11 -8 16 -5 5 4 9 -3 9 -15 0 -14 -4 -19 -12 -14 -10 5 -10 4 -1
-6 6 -7 9 -19 6 -26 -3 -8 -1 -14 5 -14 5 0 13 -7 16 -16 3 -9 2 -12 -5 -8 -6
3 -5 -3 3 -15 7 -12 17 -21 21 -21 5 0 7 -6 5 -12 -3 -7 1 -19 9 -26 7 -8 10
-18 7 -24 -4 -6 -3 -8 3 -5 12 7 46 -49 38 -63 -3 -6 -2 -10 3 -10 12 0 34
-49 27 -60 -3 -5 0 -12 6 -16 8 -4 9 -3 5 4 -4 7 -5 12 -2 12 10 0 35 -57 29
-64 -4 -3 -1 -6 5 -6 6 0 9 -7 5 -15 -3 -10 0 -15 8 -13 8 2 14 -4 14 -12 0
-8 3 -17 6 -20 4 -3 10 -22 13 -43 5 -29 3 -36 -6 -31 -10 6 -10 4 0 -8 9 -11
10 -18 2 -23 -6 -3 -7 -12 -3 -18 10 -16 10 -37 1 -63 -3 -12 -2 -26 5 -33 8
-8 8 -11 -1 -11 -9 0 -10 -5 -4 -16 17 -30 -12 -109 -35 -99 -8 2 -12 1 -9 -4
3 -5 -1 -14 -9 -21 -8 -7 -15 -9 -15 -4 0 4 -6 0 -12 -9 -17 -23 -126 -38
-113 -16 7 12 6 12 -7 1 -9 -7 -19 -9 -22 -4 -3 5 -18 7 -32 4 -15 -3 -24 -1
-21 4 3 5 -10 9 -28 8 -20 -1 -36 4 -39 11 -3 10 -14 11 -40 5 -20 -4 -36 -6
-36 -4 0 2 -10 -7 -23 -19 -13 -12 -22 -25 -20 -29 2 -5 0 -8 -6 -8 -6 0 -8
-6 -5 -14 3 -8 0 -17 -7 -22 -8 -5 -10 -3 -4 6 5 8 4 11 -3 6 -6 -4 -8 -14 -5
-23 5 -13 2 -15 -12 -10 -14 6 -16 5 -6 -6 9 -11 8 -17 -2 -26 -8 -6 -17 -8
-20 -5 -4 4 -5 -3 -2 -15 2 -13 -1 -21 -10 -21 -9 0 -12 -6 -9 -15 4 -9 0 -15
-10 -15 -10 0 -13 -6 -10 -15 4 -8 1 -15 -5 -15 -6 0 -11 -7 -11 -15 0 -8 -8
-15 -17 -16 -10 0 -13 -3 -6 -6 10 -3 10 -7 0 -18 -7 -7 -16 -10 -21 -7 -5 3
-6 0 -3 -6 8 -12 -41 -114 -52 -108 -4 3 -7 -4 -8 -14 -1 -10 -11 -38 -22 -63
-12 -25 -21 -55 -21 -67 0 -14 -4 -19 -12 -14 -10 6 -10 4 0 -7 16 -17 16 -32
0 -23 -10 6 -10 4 -2 -7 6 -8 11 -28 10 -46 0 -17 2 -29 6 -27 4 3 12 -4 17
-15 8 -14 8 -21 -2 -24 -7 -4 -6 -6 4 -6 30 -2 18 -77 -17 -109 -16 -15 -31
-30 -32 -34 -1 -5 -5 -8 -9 -7 -3 0 -10 -6 -14 -14 -12 -21 -60 -31 -70 -15
-7 10 -9 10 -9 0 0 -9 -5 -10 -19 -2 -14 7 -22 7 -26 0 -4 -6 -10 -8 -15 -5
-4 3 -10 -2 -14 -10 -3 -8 -13 -15 -21 -15 -10 0 -13 5 -9 13 5 9 4 9 -6 0
-10 -9 -20 -9 -43 4 -39 20 -129 112 -122 124 4 5 -1 9 -10 9 -9 0 -14 4 -11
8 3 5 -4 15 -15 22 -10 8 -19 23 -19 33 0 11 -4 15 -12 11 -8 -5 -9 -2 -5 9 3
10 2 17 -4 17 -6 0 -7 5 -4 10 3 6 1 10 -4 10 -6 0 -11 9 -11 20 0 11 -7 23
-15 26 -8 4 -12 10 -9 15 3 5 2 9 -3 8 -14 -2 -53 13 -53 21 0 4 -14 13 -31
20 -17 7 -28 18 -25 25 3 8 -2 11 -15 8 -10 -3 -19 -1 -19 5 0 5 -9 12 -21 15
-12 3 -18 10 -14 16 3 6 -1 11 -10 11 -9 0 -14 4 -10 9 3 5 -4 13 -15 16 -18
6 -19 9 -8 23 7 9 8 13 2 9 -6 -4 -22 4 -35 16 -42 40 -84 92 -81 100 1 4 -3
7 -9 7 -6 0 -8 7 -5 16 4 10 2 13 -6 8 -7 -5 -9 0 -6 14 4 12 3 20 -2 17 -6
-4 -11 20 -24 117 -1 10 -5 21 -9 24 -4 4 -2 13 3 19 8 9 6 14 -6 19 -14 5
-14 9 -3 23 9 11 9 14 2 10 -9 -6 -11 3 -9 30 1 20 8 39 15 41 11 4 11 6 0 12
-9 6 -10 12 -2 22 6 7 11 15 12 18 2 36 15 89 21 85 4 -2 6 7 4 20 -1 14 1 25
5 25 4 0 7 8 8 18 0 9 4 28 7 41 4 18 0 28 -15 39 -17 12 -18 16 -8 24 10 7 8
8 -7 3 -14 -3 -28 1 -38 10 -9 10 -16 12 -16 5 0 -6 -5 -8 -10 -5 -6 4 -23 9
-38 11 -15 3 -28 9 -30 14 -2 5 -9 7 -17 4 -7 -3 -16 0 -20 5 -3 6 -11 9 -16
6 -5 -4 -9 -1 -9 5 0 6 -6 10 -12 9 -7 -1 -20 -1 -28 0 -12 1 -12 3 -2 9 8 6
2 9 -18 9 -22 0 -39 8 -54 26 -13 15 -26 24 -30 20 -3 -3 -6 3 -6 14 0 12 -6
24 -12 26 -10 4 -9 8 2 16 13 9 13 11 0 11 -10 0 -11 3 -3 11 6 6 9 18 6 27
-4 10 -2 13 5 8 7 -4 12 -1 12 8 0 8 6 19 14 23 8 4 15 13 16 18 1 6 6 9 12 7
5 -1 7 1 4 6 -7 12 23 54 34 47 5 -3 12 0 16 6 4 8 3 9 -4 5 -20 -12 -13 9 7
24 11 7 17 18 14 23 -3 5 5 7 18 3 13 -3 18 -3 11 0 -10 5 -10 10 4 25 9 10
22 16 28 12 6 -3 8 -2 3 2 -10 11 23 46 36 38 5 -3 8 -2 5 3 -3 5 0 15 8 22 8
7 14 9 14 5 0 -4 7 3 16 15 8 12 21 19 27 16 7 -4 9 -3 4 1 -9 11 33 56 45 49
5 -3 8 -2 7 3 -4 20 2 27 12 13 9 -13 10 -13 6 0 -7 23 12 52 29 46 8 -3 13
-2 9 3 -3 5 11 25 30 45 19 20 35 41 35 47 0 5 5 7 10 4 6 -3 10 -1 10 4 0 6
9 20 20 31 11 11 20 31 20 45 0 14 5 25 11 25 5 0 7 5 4 10 -3 6 -1 10 6 10 7
0 10 3 6 6 -8 8 13 64 25 64 6 0 4 -8 -3 -17 -13 -16 -12 -17 4 -4 9 7 17 20
17 28 0 9 6 13 15 10 8 -4 17 -2 21 4 4 6 12 5 22 -3 12 -10 14 -10 8 0z"/>
<path d="M861 2296 c-15 -16 -24 -39 -25 -64 -2 -33 -12 -52 -54 -101 -61 -69
-204 -215 -311 -316 -78 -73 -191 -217 -191 -243 0 -14 46 -60 63 -63 13 -2
21 -5 52 -18 36 -15 140 -49 169 -56 12 -2 46 -12 77 -22 l57 -19 -19 -59
c-27 -88 -82 -288 -81 -300 0 -5 3 -23 6 -40 3 -16 9 -46 13 -65 3 -19 8 -42
10 -50 1 -8 5 -28 7 -45 8 -52 19 -70 96 -155 97 -108 131 -140 156 -151 27
-12 124 -72 133 -83 6 -7 12 -21 14 -32 4 -26 28 -68 86 -150 38 -54 66 -81
110 -107 28 -16 29 -16 35 6 4 19 12 22 49 22 24 0 51 -6 60 -13 13 -11 22 -6
66 38 l50 52 -26 57 c-54 115 -29 221 100 429 71 115 66 106 128 212 31 52 60
105 63 117 13 40 32 47 79 29 24 -9 87 -25 140 -35 92 -17 98 -17 134 -1 77
36 76 32 79 186 3 116 1 142 -13 164 -9 14 -41 72 -71 130 -69 135 -133 252
-143 265 -4 6 -4 17 1 25 23 36 2 110 -31 110 -6 0 -7 4 -4 10 3 5 -8 2 -24
-8 -17 -9 -37 -33 -45 -52 -8 -20 -41 -59 -77 -90 -35 -30 -80 -72 -100 -93
-21 -22 -42 -35 -50 -32 -20 8 -105 124 -100 138 4 11 4 39 0 72 -2 13 -23 25
-56 31 -17 3 -39 -25 -53 -69 -6 -21 -28 -55 -48 -76 -21 -20 -48 -54 -62 -74
-14 -20 -27 -37 -31 -37 -3 0 -22 33 -43 73 -21 39 -46 87 -57 105 -10 17 -15
32 -11 32 4 0 2 4 -4 8 -6 4 -29 39 -51 77 -70 123 -66 118 -99 157 -29 36
-44 67 -35 72 15 10 -2 90 -23 111 -22 21 -71 16 -95 -9z m78 -977 l31 -11
-56 -54 c-32 -30 -59 -52 -62 -49 -9 8 32 125 43 125 7 0 26 -5 44 -11z m106
-33 c6 -2 22 -6 37 -10 20 -6 26 -13 22 -29 -18 -93 -17 -96 19 -102 18 -4 76
-4 128 -1 80 4 116 8 194 20 6 0 10 -28 10 -69 -1 -133 -19 -195 -107 -373
-38 -79 -71 -149 -72 -155 -2 -7 -9 -24 -16 -39 -10 -22 -15 -25 -24 -15 -6 7
-43 41 -81 74 -61 53 -71 66 -73 97 -2 20 -7 48 -12 61 -5 14 -7 25 -5 25 2 0
0 11 -4 24 -9 21 -5 25 47 50 54 24 142 97 142 116 0 42 -66 130 -124 164 -61
36 -116 97 -118 131 -1 17 -7 34 -13 38 -9 8 10 5 50 -7z m585 -116 c0 -5 -2
-10 -4 -10 -3 0 -8 5 -11 10 -3 6 -1 10 4 10 6 0 11 -4 11 -10z m-665 -419 l7
-34 -30 24 c-35 27 -40 46 -14 52 23 5 29 -2 37 -42z"/>
<path d="M1272 1106 c4 -5 2 -16 -5 -24 -9 -12 -9 -14 0 -9 9 6 11 -1 8 -23
-2 -18 1 -30 8 -30 7 0 6 -4 -3 -10 -10 -6 -11 -10 -2 -10 7 0 12 -14 12 -36
0 -27 -7 -44 -27 -63 -16 -14 -31 -24 -35 -23 -5 1 -7 -2 -5 -6 4 -15 -62 -64
-74 -56 -7 4 -9 3 -6 -3 7 -12 -16 -36 -26 -27 -8 8 -3 -18 6 -33 5 -8 3 -13
-5 -13 -8 0 -9 -3 -3 -8 6 -4 12 -16 13 -27 6 -32 55 -90 80 -93 12 -2 22 2
22 8 0 7 6 10 14 7 8 -3 13 1 12 11 0 9 4 16 11 15 7 -2 10 3 7 11 -3 8 0 17
5 21 6 3 9 11 6 16 -4 5 -1 9 4 9 6 0 10 5 9 12 -2 7 2 12 9 13 6 0 15 4 20 9
5 6 2 6 -6 1 -11 -6 -13 -4 -7 11 5 10 9 25 9 32 0 6 10 12 21 12 14 0 17 3 9
8 -9 6 -6 20 12 57 13 27 21 53 19 57 -2 3 0 9 5 12 5 4 8 17 6 31 -1 14 2 25
8 25 6 0 7 3 4 7 -4 3 -1 13 6 21 9 13 9 14 0 8 -7 -4 -13 -3 -13 3 0 5 6 12
13 14 10 4 10 6 0 6 -7 1 -13 6 -13 12 0 5 6 7 13 3 9 -6 9 -5 0 7 -6 8 -11
18 -11 22 0 5 -4 12 -8 15 -4 4 -4 1 0 -5 4 -7 2 -13 -3 -13 -6 0 -11 4 -11 8
0 9 -41 8 -57 -1 -6 -4 -14 -1 -16 5 -4 10 -6 9 -6 -1 -1 -11 -4 -11 -18 0
-10 7 -15 9 -11 5z m74 -65 c-4 -5 0 -12 6 -14 8 -3 6 -6 -4 -6 -18 -1 -24 10
-11 22 9 10 15 8 9 -2z m-53 -211 c-3 -11 -9 -20 -14 -20 -5 0 -9 -6 -9 -13 0
-25 -52 -117 -66 -117 -8 0 -14 7 -14 15 0 8 -6 15 -12 15 -9 0 -8 4 2 10 10
6 11 10 3 10 -18 0 -16 14 7 40 11 13 20 19 20 15 0 -5 6 0 14 11 8 10 18 19
23 19 5 0 17 8 27 18 22 22 25 22 19 -3z"/>
</g>
</svg>
